<mxfile host="app.diagrams.net" agent="Mozilla/5.0 (Windows NT 10.0; Win64; x64) AppleWebKit/537.36 (KHTML, like Gecko) Chrome/134.0.0.0 Safari/537.36" version="26.1.3">
  <diagram id="system_architecture" name="Lecture Hall Allocation System Architecture">
    <mxGraphModel dx="1500" dy="746" grid="1" gridSize="10" guides="1" tooltips="1" connect="1" arrows="1" fold="1" page="1" pageScale="1" pageWidth="1169" pageHeight="827" background="#ffffff" math="0" shadow="0">
      <root>
        <mxCell id="0" />
        <mxCell id="1" parent="0" />
        <mxCell id="title" value="Lecture Hall Allocation System Architecture" style="text;html=1;strokeColor=none;fillColor=none;align=center;verticalAlign=middle;whiteSpace=wrap;rounded=0;fontSize=24;fontStyle=1;fontFamily=Georgia;" parent="1" vertex="1">
          <mxGeometry x="200" y="20" width="800" height="40" as="geometry" />
        </mxCell>
        <mxCell id="background" value="" style="rounded=0;whiteSpace=wrap;html=1;fillColor=#f5f5f5;strokeColor=#666666;fontColor=#333333;" parent="1" vertex="1">
          <mxGeometry x="40" y="70" width="1090" height="730" as="geometry" />
        </mxCell>
        <mxCell id="web_interface" value="Web Interface" style="rounded=1;fillColor=#dae8fc;strokeColor=#6c8ebf;fontSize=14;fontStyle=1;fontFamily=Arial;verticalAlign=top;align=center;spacingTop=5;html=1;" parent="1" vertex="1">
          <mxGeometry x="80" y="100" width="240" height="100" as="geometry" />
        </mxCell>
        <mxCell id="chatbot_interface" value="Chatbot Interface&#xa;(Query Interface, Feedback System)" style="rounded=1;fillColor=#dae8fc;strokeColor=#6c8ebf;fontSize=14;fontStyle=1;fontFamily=Arial;verticalAlign=top;align=center;spacingTop=5;html=1;" parent="1" vertex="1">
          <mxGeometry x="380" y="100" width="240" height="100" as="geometry" />
        </mxCell>
        <mxCell id="api_gateway" value="REST API Gateway&#xa;(Authentication, Load Balancing)" style="rounded=1;fillColor=#d5e8d4;strokeColor=#82b366;fontSize=14;fontStyle=1;fontFamily=Arial;verticalAlign=top;align=center;spacingTop=5;html=1;" parent="1" vertex="1">
          <mxGeometry x="230" y="250" width="240" height="100" as="geometry" />
        </mxCell>
        <mxCell id="services_container" value="Core Services" style="swimlane;fontSize=16;fontStyle=1;fillColor=#e1d5e7;strokeColor=#9673a6;rounded=1;startSize=30;arcSize=10;fontFamily=Georgia;" parent="1" vertex="1">
          <mxGeometry x="80" y="400" width="440" height="170" as="geometry" />
        </mxCell>
        <mxCell id="recommendation_service" value="Recommendation Service" style="rounded=1;fillColor=#fff2cc;strokeColor=#d6b656;fontSize=12;fontFamily=Arial;" parent="services_container" vertex="1">
          <mxGeometry x="20" y="40" width="190" height="40" as="geometry" />
        </mxCell>
        <mxCell id="scheduling_service" value="Scheduling Service" style="rounded=1;fillColor=#fff2cc;strokeColor=#d6b656;fontSize=12;fontFamily=Arial;" parent="services_container" vertex="1">
          <mxGeometry x="230" y="40" width="190" height="40" as="geometry" />
        </mxCell>
        <mxCell id="utilization_service" value="Utilization Analysis" style="rounded=1;fillColor=#fff2cc;strokeColor=#d6b656;fontSize=12;fontFamily=Arial;" parent="services_container" vertex="1">
          <mxGeometry x="20" y="100" width="190" height="40" as="geometry" />
        </mxCell>
        <mxCell id="user_report_service" value="User Management &amp; Reporting" style="rounded=1;fillColor=#fff2cc;strokeColor=#d6b656;fontSize=12;fontFamily=Arial;" parent="services_container" vertex="1">
          <mxGeometry x="230" y="100" width="190" height="40" as="geometry" />
        </mxCell>
        <mxCell id="agent_system" value="Multi-Agent AI System" style="swimlane;fontSize=16;fontStyle=1;fillColor=#e1d5e7;strokeColor=#9673a6;rounded=1;startSize=30;arcSize=10;fontFamily=Georgia;" parent="1" vertex="1">
          <mxGeometry x="580" y="400" width="460" height="240" as="geometry" />
        </mxCell>
        <mxCell id="supervisor_agent" value="Supervisor Agent" style="ellipse;whiteSpace=wrap;html=1;fillColor=#d5e8d4;strokeColor=#82b366;fontSize=14;fontFamily=Arial;fontStyle=1" parent="agent_system" vertex="1">
          <mxGeometry x="170" y="40" width="120" height="80" as="geometry" />
        </mxCell>
        <mxCell id="mysql_agent" value="MySQL&#xa;Agent" style="ellipse;whiteSpace=wrap;html=1;fillColor=#fff2cc;strokeColor=#d6b656;fontSize=14;fontFamily=Arial;" parent="agent_system" vertex="1">
          <mxGeometry x="50" y="150" width="100" height="60" as="geometry" />
        </mxCell>
        <mxCell id="rag_agent" value="RAG&#xa;Agent" style="ellipse;whiteSpace=wrap;html=1;fillColor=#fff2cc;strokeColor=#d6b656;fontSize=14;fontFamily=Arial;" parent="agent_system" vertex="1">
          <mxGeometry x="180" y="150" width="100" height="60" as="geometry" />
        </mxCell>
        <mxCell id="search_agent" value="Google Search&#xa;Agent" style="ellipse;whiteSpace=wrap;html=1;fillColor=#fff2cc;strokeColor=#d6b656;fontSize=14;fontFamily=Arial;" parent="agent_system" vertex="1">
          <mxGeometry x="310" y="150" width="100" height="60" as="geometry" />
        </mxCell>
        <mxCell id="report_agent" value="Report&#xa;Agent" style="ellipse;whiteSpace=wrap;html=1;fillColor=#fff2cc;strokeColor=#d6b656;fontSize=14;fontFamily=Arial;dashed=0;" parent="agent_system" vertex="1">
          <mxGeometry x="340" y="70" width="100" height="60" as="geometry" />
        </mxCell>
        <mxCell id="supervisor_mysql" value="" style="endArrow=classic;startArrow=classic;html=1;rounded=0;exitX=0.175;exitY=0.9;exitDx=0;exitDy=0;entryX=0.5;entryY=0;entryDx=0;entryDy=0;exitPerimeter=0;" parent="agent_system" source="supervisor_agent" target="mysql_agent" edge="1">
          <mxGeometry width="50" height="50" relative="1" as="geometry">
            <mxPoint x="310" y="150" as="sourcePoint" />
            <mxPoint x="360" y="100" as="targetPoint" />
          </mxGeometry>
        </mxCell>
        <mxCell id="supervisor_rag" value="" style="endArrow=classic;startArrow=classic;html=1;rounded=0;exitX=0.5;exitY=1;exitDx=0;exitDy=0;entryX=0.5;entryY=0;entryDx=0;entryDy=0;" parent="agent_system" source="supervisor_agent" target="rag_agent" edge="1">
          <mxGeometry width="50" height="50" relative="1" as="geometry">
            <mxPoint x="310" y="150" as="sourcePoint" />
            <mxPoint x="360" y="100" as="targetPoint" />
          </mxGeometry>
        </mxCell>
        <mxCell id="supervisor_search" value="" style="endArrow=classic;startArrow=classic;html=1;rounded=0;exitX=0.825;exitY=0.9;exitDx=0;exitDy=0;entryX=0.5;entryY=0;entryDx=0;entryDy=0;exitPerimeter=0;" parent="agent_system" source="supervisor_agent" target="search_agent" edge="1">
          <mxGeometry width="50" height="50" relative="1" as="geometry">
            <mxPoint x="310" y="150" as="sourcePoint" />
            <mxPoint x="360" y="100" as="targetPoint" />
          </mxGeometry>
        </mxCell>
        <mxCell id="supervisor_report" value="" style="endArrow=classic;startArrow=classic;html=1;rounded=0;exitX=1;exitY=0.5;exitDx=0;exitDy=0;entryX=0;entryY=0.5;entryDx=0;entryDy=0;" parent="agent_system" source="supervisor_agent" target="report_agent" edge="1">
          <mxGeometry width="50" height="50" relative="1" as="geometry">
            <mxPoint x="310" y="150" as="sourcePoint" />
            <mxPoint x="360" y="100" as="targetPoint" />
          </mxGeometry>
        </mxCell>
        <mxCell id="mysql_db" value="MySQL Database&#xa;(Lecture Halls, Users, Schedules)" style="shape=cylinder3;whiteSpace=wrap;html=1;boundedLbl=1;backgroundOutline=1;size=15;fillColor=#f8cecc;strokeColor=#b85450;fontSize=14;fontFamily=Arial;verticalAlign=top;spacingTop=5;" parent="1" vertex="1">
          <mxGeometry x="80" y="640" width="200" height="120" as="geometry" />
        </mxCell>
        <mxCell id="document_index" value="Document Index&#xa;(Policies, Guidelines)" style="shape=cylinder3;whiteSpace=wrap;html=1;boundedLbl=1;backgroundOutline=1;size=15;fillColor=#f8cecc;strokeColor=#b85450;fontSize=14;fontFamily=Arial;verticalAlign=top;spacingTop=5;" parent="1" vertex="1">
          <mxGeometry x="340" y="640" width="200" height="120" as="geometry" />
        </mxCell>
        <mxCell id="pm2_manager" value="PM2 Process Manager" style="rounded=1;fillColor=#ffe6cc;strokeColor=#d79b00;fontSize=14;fontStyle=1;fontFamily=Arial;verticalAlign=middle;align=center;" parent="1" vertex="1">
          <mxGeometry x="630" y="690" width="240" height="60" as="geometry" />
        </mxCell>
        <mxCell id="web_to_api" value="" style="endArrow=classic;html=1;rounded=0;exitX=0.5;exitY=1;exitDx=0;exitDy=0;entryX=0.25;entryY=0;entryDx=0;entryDy=0;" parent="1" source="web_interface" target="api_gateway" edge="1">
          <mxGeometry width="50" height="50" relative="1" as="geometry">
            <mxPoint x="560" y="450" as="sourcePoint" />
            <mxPoint x="610" y="400" as="targetPoint" />
          </mxGeometry>
        </mxCell>
        <mxCell id="chatbot_to_api" value="" style="endArrow=classic;html=1;rounded=0;exitX=0.5;exitY=1;exitDx=0;exitDy=0;entryX=0.75;entryY=0;entryDx=0;entryDy=0;" parent="1" source="chatbot_interface" target="api_gateway" edge="1">
          <mxGeometry width="50" height="50" relative="1" as="geometry">
            <mxPoint x="560" y="450" as="sourcePoint" />
            <mxPoint x="610" y="400" as="targetPoint" />
          </mxGeometry>
        </mxCell>
        <mxCell id="api_to_services" value="" style="endArrow=classic;html=1;rounded=0;exitX=0.5;exitY=1;exitDx=0;exitDy=0;entryX=0.5;entryY=0;entryDx=0;entryDy=0;" parent="1" source="api_gateway" target="services_container" edge="1">
          <mxGeometry width="50" height="50" relative="1" as="geometry">
            <mxPoint x="560" y="450" as="sourcePoint" />
            <mxPoint x="610" y="400" as="targetPoint" />
          </mxGeometry>
        </mxCell>
        <mxCell id="api_to_agents" value="" style="endArrow=classic;html=1;rounded=0;exitX=0.75;exitY=1;exitDx=0;exitDy=0;entryX=0;entryY=0;entryDx=0;entryDy=0;" parent="1" source="api_gateway" target="agent_system" edge="1">
          <mxGeometry width="50" height="50" relative="1" as="geometry">
            <mxPoint x="560" y="450" as="sourcePoint" />
            <mxPoint x="610" y="400" as="targetPoint" />
          </mxGeometry>
        </mxCell>
        <mxCell id="services_to_agents" value="" style="endArrow=classic;startArrow=classic;html=1;rounded=0;exitX=1;exitY=0.5;exitDx=0;exitDy=0;entryX=0;entryY=0.5;entryDx=0;entryDy=0;" parent="1" source="services_container" target="agent_system" edge="1">
          <mxGeometry width="50" height="50" relative="1" as="geometry">
            <mxPoint x="560" y="450" as="sourcePoint" />
            <mxPoint x="610" y="400" as="targetPoint" />
          </mxGeometry>
        </mxCell>
        <mxCell id="agents_to_mysql" value="" style="endArrow=classic;startArrow=classic;html=1;rounded=0;exitX=0;exitY=0.75;exitDx=0;exitDy=0;entryX=0.855;entryY=0;entryDx=0;entryDy=-4.35;entryPerimeter=0;" parent="1" source="agent_system" target="mysql_db" edge="1">
          <mxGeometry width="50" height="50" relative="1" as="geometry">
            <mxPoint x="560" y="450" as="sourcePoint" />
            <mxPoint x="610" y="400" as="targetPoint" />
          </mxGeometry>
        </mxCell>
        <mxCell id="agents_to_docs" value="" style="endArrow=classic;startArrow=classic;html=1;rounded=0;exitX=0.25;exitY=1;exitDx=0;exitDy=0;entryX=1;entryY=0;entryDx=0;entryDy=37.5;entryPerimeter=0;" parent="1" source="agent_system" target="document_index" edge="1">
          <mxGeometry width="50" height="50" relative="1" as="geometry">
            <mxPoint x="560" y="450" as="sourcePoint" />
            <mxPoint x="610" y="400" as="targetPoint" />
          </mxGeometry>
        </mxCell>
        <mxCell id="services_to_mysql" value="" style="endArrow=classic;startArrow=classic;html=1;rounded=0;exitX=0.25;exitY=1;exitDx=0;exitDy=0;entryX=0.5;entryY=0;entryDx=0;entryDy=0;entryPerimeter=0;" parent="1" source="services_container" target="mysql_db" edge="1">
          <mxGeometry width="50" height="50" relative="1" as="geometry">
            <mxPoint x="560" y="450" as="sourcePoint" />
            <mxPoint x="610" y="400" as="targetPoint" />
          </mxGeometry>
        </mxCell>
        <mxCell id="services_to_docs" value="" style="endArrow=classic;startArrow=classic;html=1;rounded=0;exitX=0.75;exitY=1;exitDx=0;exitDy=0;entryX=0.5;entryY=0;entryDx=0;entryDy=0;entryPerimeter=0;" parent="1" source="services_container" target="document_index" edge="1">
          <mxGeometry width="50" height="50" relative="1" as="geometry">
            <mxPoint x="560" y="450" as="sourcePoint" />
            <mxPoint x="610" y="400" as="targetPoint" />
          </mxGeometry>
        </mxCell>
        <mxCell id="agents_to_pm2" value="" style="endArrow=classic;html=1;rounded=0;exitX=0.5;exitY=1;exitDx=0;exitDy=0;entryX=0.5;entryY=0;entryDx=0;entryDy=0;" parent="1" source="agent_system" target="pm2_manager" edge="1">
          <mxGeometry width="50" height="50" relative="1" as="geometry">
            <mxPoint x="560" y="450" as="sourcePoint" />
            <mxPoint x="610" y="400" as="targetPoint" />
          </mxGeometry>
        </mxCell>
        <mxCell id="legend" value="Legend" style="swimlane;fontSize=14;fontStyle=1;fillColor=#f5f5f5;strokeColor=#666666;fontColor=#333333;rounded=1;startSize=23;arcSize=11;fontFamily=Arial;" parent="1" vertex="1">
          <mxGeometry x="860" y="100" width="200" height="220" as="geometry" />
        </mxCell>
        <mxCell id="legend_web" value="" style="rounded=1;whiteSpace=wrap;html=1;fillColor=#dae8fc;strokeColor=#6c8ebf;" parent="legend" vertex="1">
          <mxGeometry x="10" y="35" width="30" height="20" as="geometry" />
        </mxCell>
        <mxCell id="legend_web_text" value="User Interface Components" style="text;html=1;strokeColor=none;fillColor=none;align=left;verticalAlign=middle;whiteSpace=wrap;rounded=0;fontSize=10;fontFamily=Arial;" parent="legend" vertex="1">
          <mxGeometry x="50" y="35" width="140" height="20" as="geometry" />
        </mxCell>
        <mxCell id="legend_api" value="" style="rounded=1;whiteSpace=wrap;html=1;fillColor=#d5e8d4;strokeColor=#82b366;" parent="legend" vertex="1">
          <mxGeometry x="10" y="65" width="30" height="20" as="geometry" />
        </mxCell>
        <mxCell id="legend_api_text" value="API Gateway" style="text;html=1;strokeColor=none;fillColor=none;align=left;verticalAlign=middle;whiteSpace=wrap;rounded=0;fontSize=10;fontFamily=Arial;" parent="legend" vertex="1">
          <mxGeometry x="50" y="65" width="140" height="20" as="geometry" />
        </mxCell>
        <mxCell id="legend_services" value="" style="rounded=1;whiteSpace=wrap;html=1;fillColor=#e1d5e7;strokeColor=#9673a6;" parent="legend" vertex="1">
          <mxGeometry x="10" y="95" width="30" height="20" as="geometry" />
        </mxCell>
        <mxCell id="legend_services_text" value="Service Containers" style="text;html=1;strokeColor=none;fillColor=none;align=left;verticalAlign=middle;whiteSpace=wrap;rounded=0;fontSize=10;fontFamily=Arial;" parent="legend" vertex="1">
          <mxGeometry x="50" y="95" width="140" height="20" as="geometry" />
        </mxCell>
        <mxCell id="legend_supervisor" value="" style="ellipse;whiteSpace=wrap;html=1;fillColor=#d5e8d4;strokeColor=#82b366;" parent="legend" vertex="1">
          <mxGeometry x="10" y="125" width="30" height="20" as="geometry" />
        </mxCell>
        <mxCell id="legend_supervisor_text" value="Supervisor Agent" style="text;html=1;strokeColor=none;fillColor=none;align=left;verticalAlign=middle;whiteSpace=wrap;rounded=0;fontSize=10;fontFamily=Arial;" parent="legend" vertex="1">
          <mxGeometry x="50" y="125" width="140" height="20" as="geometry" />
        </mxCell>
        <mxCell id="legend_agent" value="" style="ellipse;whiteSpace=wrap;html=1;fillColor=#fff2cc;strokeColor=#d6b656;" parent="legend" vertex="1">
          <mxGeometry x="10" y="155" width="30" height="20" as="geometry" />
        </mxCell>
        <mxCell id="legend_agent_text" value="Agent" style="text;html=1;strokeColor=none;fillColor=none;align=left;verticalAlign=middle;whiteSpace=wrap;rounded=0;fontSize=10;fontFamily=Arial;" parent="legend" vertex="1">
          <mxGeometry x="50" y="155" width="140" height="20" as="geometry" />
        </mxCell>
        <mxCell id="legend_storage" value="" style="shape=cylinder3;whiteSpace=wrap;html=1;boundedLbl=1;backgroundOutline=1;size=15;fillColor=#f8cecc;strokeColor=#b85450;" parent="legend" vertex="1">
          <mxGeometry x="10" y="185" width="30" height="20" as="geometry" />
        </mxCell>
        <mxCell id="legend_storage_text" value="Data Storage" style="text;html=1;strokeColor=none;fillColor=none;align=left;verticalAlign=middle;whiteSpace=wrap;rounded=0;fontSize=10;fontFamily=Arial;" parent="legend" vertex="1">
          <mxGeometry x="50" y="185" width="140" height="20" as="geometry" />
        </mxCell>
      </root>
    </mxGraphModel>
  </diagram>
</mxfile>
